<svg id="Layer_1" data-name="Layer 1" xmlns="http://www.w3.org/2000/svg" viewBox="0 0 429.7 165.8"><defs><style>.cls-1{fill:#fff;}</style></defs><title>nlv-logo-white</title><path class="cls-1" d="M125.2,99.6l20.9-80.9a28,28,0,0,0,1-4.8,36.59,36.59,0,0,0,.4-5.2,27.26,27.26,0,0,0-.2-3.2,13.06,13.06,0,0,0-1.1-3.4h29.1c-1.1,1.8-2.2,3.4-3,4.8a31.68,31.68,0,0,0-2.3,4.5c-.6,1.6-1.3,3.4-1.9,5.3s-1.3,4.3-2.1,7.1L138.8,128.9H85l-32.7-96L31.8,112a38.72,38.72,0,0,0-.8,4.8,38.93,38.93,0,0,0-.4,5.3,28.51,28.51,0,0,0,.2,3.1,11.84,11.84,0,0,0,1,3.5H2.9a52,52,0,0,0,3-4.7,38.12,38.12,0,0,0,2.3-4.5c.6-1.5,1.3-3.3,1.9-5.2s1.3-4.4,2.1-7.3L35,18.7a38.72,38.72,0,0,0,.8-4.8,39.93,39.93,0,0,0,.4-5.2A28.51,28.51,0,0,0,36,5.6a11.84,11.84,0,0,0-1-3.5H91.6Z" transform="translate(-2.9 -1.9)"/><path class="cls-1" d="M270,128.7H153.9c1.1-1.7,2.2-3.2,3-4.7a39.47,39.47,0,0,0,2.3-4.6,48,48,0,0,0,1.9-5.4q.9-3,2.1-7.2L186,18.5a38.72,38.72,0,0,0,.8-4.8,39.93,39.93,0,0,0,.4-5.2,28.51,28.51,0,0,0-.2-3.1,11.84,11.84,0,0,0-1-3.5h56.8c-1.1,1.8-2.2,3.4-3,4.8a31.68,31.68,0,0,0-2.3,4.5c-.6,1.6-1.3,3.4-1.9,5.3s-1.3,4.3-2.1,7.1l-21.7,84.2h31.5c5.7,0,10.4,0,14.1-.1s6.8-.2,9.4-.4a38.12,38.12,0,0,0,6.7-1c1.8-.4,3.8-1,6-1.6Z" transform="translate(-2.9 -1.9)"/><path class="cls-1" d="M395.4,21.2a36.24,36.24,0,0,0,3.6-8.5,32.48,32.48,0,0,0,1.3-8.9V2h32.3c-1.9,2.2-3.5,3.9-4.7,5.2a35.24,35.24,0,0,0-3.1,3.9c-.9,1.3-1.8,2.6-2.7,4s-2,3.2-3.2,5.3L354.7,128.7h-53L286.5,19.3a54.7,54.7,0,0,0-2.1-9.4A49.52,49.52,0,0,0,281,2h56a22.88,22.88,0,0,0-2.5,5.9,26.83,26.83,0,0,0-.6,6.3c0,1.4,0,2.8.1,4.2a25.73,25.73,0,0,0,.5,4l11.6,81.9Z" transform="translate(-2.9 -1.9)"/><path class="cls-1" d="M34.6,161.4l4.5-17.5a8.66,8.66,0,0,0,.2-1,4.91,4.91,0,0,0,.1-1.1v-.7a2.54,2.54,0,0,0-.2-.7h6.3a8.65,8.65,0,0,1-.7,1,3.13,3.13,0,0,0-.5,1c-.1.3-.3.7-.4,1.1s-.3.9-.5,1.5l-5.9,22.7H25.9l-7-20.7-4.4,17.1a8.66,8.66,0,0,0-.2,1,4.91,4.91,0,0,0-.1,1.1v.7a3.09,3.09,0,0,0,.2.8H8.2a8.65,8.65,0,0,1,.7-1,3.13,3.13,0,0,0,.5-1c.1-.3.3-.7.4-1.1s.3-.9.5-1.6l4.9-19.1a8.66,8.66,0,0,0,.2-1,5.38,5.38,0,0,0,.1-1.1v-.7a3.09,3.09,0,0,0-.2-.8H27.5Z" transform="translate(-2.9 -1.9)"/><path class="cls-1" d="M56.3,151.5H66.5a8.42,8.42,0,0,0,2.7-.4l-1.4,5.5a11.22,11.22,0,0,0-1.3-.5,9.23,9.23,0,0,0-1.9-.1H55.2l-1.8,7.1H64.1a7.57,7.57,0,0,0,1.5-.1c.4-.1.9-.3,1.5-.5l-2,5.2H40.8a8.65,8.65,0,0,1,.7-1,3.13,3.13,0,0,0,.5-1c.1-.3.3-.7.4-1.1s.3-.9.5-1.5L47.8,144a8.66,8.66,0,0,0,.2-1,5.38,5.38,0,0,0,.1-1.1v-.7a3.09,3.09,0,0,0-.2-.8H72l-.7,5.2a3,3,0,0,0-1.4-.5,8.66,8.66,0,0,0-1.8-.1h-10Z" transform="translate(-2.9 -1.9)"/><path class="cls-1" d="M95.9,142.5l1-1a10.91,10.91,0,0,0,.6-1.1h8a5.55,5.55,0,0,0-.8.6l-.9.6c-.2.1-.4.3-.6.4a1.76,1.76,0,0,1-.5.4l-.8.7-11.5,9.7L95.5,163c.4.8.7,1.4,1,1.9a5.42,5.42,0,0,0,.6,1.1,5.55,5.55,0,0,0,.6.8l.8.8H85.1a.76.76,0,0,0,.1-.4v-.4a8.79,8.79,0,0,0-.3-2,22.43,22.43,0,0,0-1-2.6l-1.4-2.8-6.3,5.4-.8.8-.6.6a2.09,2.09,0,0,0-.4.6c-.1.2-.2.5-.3.7H65c.5-.3,1.1-.5,1.5-.8s.9-.6,1.4-.9a14.31,14.31,0,0,0,1.5-1.1c.5-.4,1.2-.9,1.9-1.5l9.3-7.9-3.7-8c-.4-.9-.8-1.6-1.1-2.3a14.51,14.51,0,0,0-1-1.8c-.3-.6-.7-1.1-1-1.6a14.31,14.31,0,0,0-1.1-1.5H86.1c-.1.2-.1.4-.2.6V142a2.92,2.92,0,0,0,.2.9,6.89,6.89,0,0,0,.4,1,4.88,4.88,0,0,0,.6,1.3l1.5,3.2Z" transform="translate(-2.9 -1.9)"/><path class="cls-1" d="M131.2,140.3l-.5,5a3,3,0,0,0-1.1-.4,4.89,4.89,0,0,0-1.3-.1h-5.6l-5,19.2a8.66,8.66,0,0,0-.2,1,5.38,5.38,0,0,0-.1,1.1v.7a2.54,2.54,0,0,0,.2.7H105.3a8.65,8.65,0,0,1,.7-1,3.13,3.13,0,0,0,.5-1c.1-.4.3-.7.4-1.2s.3-.9.5-1.5l4.7-18.2h-5.9a4.89,4.89,0,0,0-1.3.1c-.3.1-.8.2-1.3.4l2.1-5h25.5Z" transform="translate(-2.9 -1.9)"/><path class="cls-1" d="M161.7,167.7H136.6a8.65,8.65,0,0,1,.7-1,3.13,3.13,0,0,0,.5-1,8.34,8.34,0,0,0,.4-1.2c.1-.4.3-.9.5-1.6l4.9-19.1a8.66,8.66,0,0,0,.2-1,5.38,5.38,0,0,0,.1-1.1V141a3.09,3.09,0,0,0-.2-.8H156a8.65,8.65,0,0,1-.7,1,3.13,3.13,0,0,0-.5,1c-.1.3-.3.7-.4,1.1s-.3.9-.5,1.5L149.2,163H159a11.52,11.52,0,0,0,2-.1,5.21,5.21,0,0,0,1.4-.2c.4-.1.8-.2,1.3-.3Z" transform="translate(-2.9 -1.9)"/><path class="cls-1" d="M179.5,151.5h10.2a8.42,8.42,0,0,0,2.7-.4l-1.4,5.5a11.22,11.22,0,0,0-1.3-.5,9.23,9.23,0,0,0-1.9-.1h-9.4l-1.8,7.1h10.7a7.57,7.57,0,0,0,1.5-.1c.4-.1.9-.3,1.5-.5l-2,5.2H164a8.65,8.65,0,0,1,.7-1,3.13,3.13,0,0,0,.5-1c.1-.3.3-.7.4-1.1s.3-.9.5-1.5L171,144a8.66,8.66,0,0,0,.2-1,5.38,5.38,0,0,0,.1-1.1v-.7a3.09,3.09,0,0,0-.2-.8h24.3l-.7,5.2a3,3,0,0,0-1.4-.5,8.66,8.66,0,0,0-1.8-.1H181.4Z" transform="translate(-2.9 -1.9)"/><path class="cls-1" d="M220,144.5a9.82,9.82,0,0,0,.8-1.8,6.8,6.8,0,0,0,.3-1.9v-.4h7a12,12,0,0,1-1,1.1c-.3.3-.5.6-.7.8l-.6.9c-.2.3-.4.7-.7,1.1l-13.9,23.4H199.8l-3.3-23.6a9.73,9.73,0,0,0-.5-2,8.65,8.65,0,0,0-.7-1.7h12.1a2.66,2.66,0,0,0-.5,1.3,5.72,5.72,0,0,0-.1,1.4v.9a2.77,2.77,0,0,0,.1.9l2.5,17.7Z" transform="translate(-2.9 -1.9)"/><path class="cls-1" d="M237.4,151.5h10.2a8.42,8.42,0,0,0,2.7-.4l-1.4,5.5a11.22,11.22,0,0,0-1.3-.5,9.23,9.23,0,0,0-1.9-.1h-9.4l-1.8,7.1h10.7a7.57,7.57,0,0,0,1.5-.1c.4-.1.9-.3,1.5-.5l-2,5.2H222.1a8.65,8.65,0,0,1,.7-1,3.13,3.13,0,0,0,.5-1c.1-.3.3-.7.4-1.1s.3-.9.5-1.5l4.9-19.1a8.66,8.66,0,0,0,.2-1,5.38,5.38,0,0,0,.1-1.1v-.7a3.09,3.09,0,0,0-.2-.8h24.3l-.7,5.2a3,3,0,0,0-1.4-.5c-.4,0-1-.1-1.8-.1H239.5Z" transform="translate(-2.9 -1.9)"/><path class="cls-1" d="M273.7,167.7H248.6a8.65,8.65,0,0,1,.7-1,3.13,3.13,0,0,0,.5-1c.1-.4.3-.7.4-1.2s.3-.9.5-1.6l4.9-19.1a8.66,8.66,0,0,0,.2-1,5.38,5.38,0,0,0,.1-1.1V141a3.09,3.09,0,0,0-.2-.8H268a8.65,8.65,0,0,1-.7,1,3.13,3.13,0,0,0-.5,1c-.1.3-.3.7-.4,1.1s-.3.9-.5,1.5L261.2,163H271a11.52,11.52,0,0,0,2-.1,5.21,5.21,0,0,0,1.4-.2c.4-.1.8-.2,1.3-.3Z" transform="translate(-2.9 -1.9)"/><path class="cls-1" d="M315.4,144.5a9.82,9.82,0,0,0,.8-1.8,6.79,6.79,0,0,0,.3-1.9v-.4h7a12,12,0,0,1-1,1.1c-.3.3-.5.6-.7.8l-.6.9c-.2.3-.4.7-.7,1.1l-13.9,23.4H295.2l-3.3-23.6a9.73,9.73,0,0,0-.5-2,8.65,8.65,0,0,0-.7-1.7h12.1a2.67,2.67,0,0,0-.5,1.3,5.72,5.72,0,0,0-.1,1.4v.9a2.77,2.77,0,0,0,.1.9l2.5,17.7Z" transform="translate(-2.9 -1.9)"/><path class="cls-1" d="M336.5,140.3a8.65,8.65,0,0,1-.7,1,3.13,3.13,0,0,0-.5,1c-.1.4-.3.7-.4,1.1s-.3.9-.5,1.5L329.5,164a3.09,3.09,0,0,0-.2,1.1,4.48,4.48,0,0,0-.1,1.1v.7a3.09,3.09,0,0,0,.2.8H317.1a8.65,8.65,0,0,1,.7-1,3.13,3.13,0,0,0,.5-1c.1-.3.3-.7.4-1.1s.3-.9.5-1.6l4.9-19.1a8.66,8.66,0,0,0,.2-1,5.38,5.38,0,0,0,.1-1.1v-.7a3.09,3.09,0,0,0-.2-.8Z" transform="translate(-2.9 -1.9)"/><path class="cls-1" d="M332.5,167.7a8.65,8.65,0,0,1,.7-1,3.13,3.13,0,0,0,.5-1c.1-.3.3-.7.4-1.1s.3-.9.5-1.5l4.9-19.1a8.66,8.66,0,0,0,.2-1,5.38,5.38,0,0,0,.1-1.1v-.7a3.09,3.09,0,0,0-.2-.8H362c.6,0,1,.1,1.4.1s.7.2,1,.3a4.05,4.05,0,0,1,.9.5,4.94,4.94,0,0,1,1.6,1.9,5.33,5.33,0,0,1,.6,2.4,5.74,5.74,0,0,1-.1,1.2c-.1.5-.1.9-.2,1.2l-3.3,12.8c-.2.8-.4,1.5-.5,2s-.3,1-.5,1.4a3.59,3.59,0,0,1-.7,1l-.9.9a5.5,5.5,0,0,1-.9.7,3,3,0,0,1-.8.4,3,3,0,0,1-1,.2,5.72,5.72,0,0,1-1.4.1,3.75,3.75,0,0,0-1.1.1H332.5Zm17.6-4.6a5.31,5.31,0,0,0,1.4-.1,1.49,1.49,0,0,0,.9-.4,1.87,1.87,0,0,0,.5-1c.1-.4.3-1,.5-1.8l3.3-12.8a6.37,6.37,0,0,1,.2-.7v-.4a1.05,1.05,0,0,0-.4-1,3,3,0,0,0-1.6-.3h-5.3l-4.7,18.3h5.2Z" transform="translate(-2.9 -1.9)"/><path class="cls-1" d="M380.8,151.5H391a8.42,8.42,0,0,0,2.7-.4l-1.4,5.5a11.22,11.22,0,0,0-1.3-.5,9.23,9.23,0,0,0-1.9-.1h-9.4l-1.8,7.1h10.7a7.57,7.57,0,0,0,1.5-.1c.4-.1.9-.3,1.5-.5l-2,5.2H365.5a8.65,8.65,0,0,1,.7-1,3.13,3.13,0,0,0,.5-1c.1-.3.3-.7.4-1.1s.3-.9.5-1.5l4.9-19.1a8.66,8.66,0,0,0,.2-1,5.38,5.38,0,0,0,.1-1.1v-.7a3.09,3.09,0,0,0-.2-.8h24.3l-.7,5.2a3,3,0,0,0-1.4-.5c-.4,0-1-.1-1.8-.1H382.9Z" transform="translate(-2.9 -1.9)"/><path class="cls-1" d="M420,140.3a11.48,11.48,0,0,1,1.9.1c.6.1,1,.1,1.4.2s.8.3,1.1.4l.9.6a5.22,5.22,0,0,1,1.4,1.9,5.93,5.93,0,0,1,.5,2.3,8.46,8.46,0,0,1-.4,2.4l-3.5,13.5a12.56,12.56,0,0,1-1.1,2.8,4.72,4.72,0,0,1-1.6,1.8,6.43,6.43,0,0,1-2.4,1,16.5,16.5,0,0,1-3.4.3h-16a5.9,5.9,0,0,1-1.4-.2,3,3,0,0,1-1-.4,5.5,5.5,0,0,1-.9-.7,5.44,5.44,0,0,1-1.7-4v-.5a1.09,1.09,0,0,1,.1-.5c0-.2.1-.4.1-.6a9.26,9.26,0,0,1,.3-1l3.5-13.5a10.23,10.23,0,0,1,1.1-2.8,5.74,5.74,0,0,1,4.2-2.9,18.27,18.27,0,0,1,3.5-.3H420Zm-15.4,20.3c-.1.6-.2.9-.2,1v.3a1.42,1.42,0,0,0,.2.6,1,1,0,0,0,.5.4,1.27,1.27,0,0,0,.6.1h6a.6.6,0,0,0,.6-.3,1.61,1.61,0,0,0,.4-.7c.1-.3.2-.8.4-1.3l3.4-13.3.2-.7a2.49,2.49,0,0,0,.1-.8c0-.8-.7-1.1-2-1.1H411a4.12,4.12,0,0,0-1.2.1,2,2,0,0,0-.8.4,5.55,5.55,0,0,0-.6.8,4,4,0,0,0-.4,1.3Z" transform="translate(-2.9 -1.9)"/></svg>